<?xml version="1.0" encoding="utf-8"?>
<!-- Generator: Adobe Illustrator 25.4.1, SVG Export Plug-In . SVG Version: 6.00 Build 0)  -->
<svg version="1.1" id="Layer_1" xmlns="http://www.w3.org/2000/svg" xmlns:xlink="http://www.w3.org/1999/xlink" x="0px" y="0px"
	 viewBox="0 0 512 512" style="enable-background:new 0 0 512 512;" xml:space="preserve">
<style type="text/css">
	.st0{fill:#FFFFFF;}
</style>
<path class="st0" d="M320,277.3c-11.8,0-21.3,9.6-21.3,21.3V384c0,11.8-9.6,21.3-21.3,21.3h-64v-320c0-18.2-11.6-34.5-29.1-40.6
	l-6.3-2.1h99.4c11.8,0,21.3,9.6,21.3,21.3v64c0,11.8,9.5,21.3,21.3,21.3s21.3-9.6,21.3-21.3V64c0-35.3-28.7-64-64-64H48
	c-0.8,0-1.5,0.4-2.3,0.5c-1-0.1-2-0.5-3.1-0.5C19.1,0,0,19.1,0,42.7v384c0,18.2,11.6,34.5,29.1,40.6L157.4,510c4.4,1.3,8.7,2,13.2,2
	c23.5,0,42.7-19.1,42.7-42.7V448h64c35.3,0,64-28.7,64-64v-85.3C341.3,286.9,331.8,277.3,320,277.3z"/>
<path class="st0" d="M505.7,198.3l-85.3-85.3c-6.1-6.1-15.3-7.9-23.2-4.6c-8,3.3-13.2,11.1-13.2,19.7v64h-85.3
	c-11.8,0-21.3,9.6-21.3,21.3s9.6,21.3,21.3,21.3H384v64c0,8.6,5.2,16.4,13.2,19.7c8,3.3,17.2,1.5,23.2-4.6l85.3-85.3
	C514.1,220.1,514.1,206.6,505.7,198.3z"/>
</svg>
