<?xml version="1.0" encoding="utf-8"?>
<!-- Generator: Adobe Illustrator 25.4.1, SVG Export Plug-In . SVG Version: 6.00 Build 0)  -->
<svg version="1.1" id="Capa_1" xmlns="http://www.w3.org/2000/svg" xmlns:xlink="http://www.w3.org/1999/xlink" x="0px" y="0px"
	 viewBox="0 0 384.2 384.2" style="enable-background:new 0 0 384.2 384.2;" xml:space="preserve">
<style type="text/css">
	.st0{fill:#2A9D8F;}
</style>
<path class="st0" d="M353.6,20.1h-323C13.7,20.1,0,33.9,0,50.7v214.6c0,16.9,13.7,30.6,30.6,30.6h121.9l-29.3,30.7
	c-2.1,2.9-3.2,6.4-3.2,9.9v10.4c0,9.4,7.6,17.1,17.1,17.1h110c9.4,0,17.1-7.6,17.1-17.1v-10.4c0-3.6-1.1-7-3.2-9.9l-29.3-30.7h121.9
	c16.9,0,30.6-13.7,30.6-30.6V50.7C384.2,33.9,370.4,20.1,353.6,20.1z M350,261.8H192.1c0,0,0,0,0,0c0,0,0,0,0,0H34.2V54.3H350V261.8
	z"/>
</svg>
