<?xml version="1.0" encoding="utf-8"?>
<!-- Generator: Adobe Illustrator 25.4.1, SVG Export Plug-In . SVG Version: 6.00 Build 0)  -->
<svg version="1.1" id="Capa_1" xmlns="http://www.w3.org/2000/svg" xmlns:xlink="http://www.w3.org/1999/xlink" x="0px" y="0px"
	 viewBox="0 0 512 512" style="enable-background:new 0 0 512 512;" xml:space="preserve">
<style type="text/css">
	.st0{fill:#FFFFFF;}
</style>
<g>
	<g>
		<g>
			<path class="st0" d="M256,192c-35.3,0-64,28.7-64,64s28.7,64,64,64s64-28.7,64-64S291.3,192,256,192z"/>
			<path class="st0" d="M494.7,212.5l-28.2-5.4c-12.7-2.4-22.6-10.7-27.3-22.6c-4.7-12-3.1-24.8,4.6-35.2l17.7-24.2
				c6.2-8.5,5.3-20.2-2.1-27.7L421.1,59c-7.2-7.2-18.6-8.3-27-2.6l-23.8,16.1c-10.6,7.2-23.5,8.4-35.3,3.3
				c-11.8-5.2-19.7-15.4-21.7-28.1l-4.6-29.6C307.1,7.7,298.1,0,287.6,0h-54.1c-10.2,0-19,7.3-20.9,17.3l-7,36.5
				c-2.4,12.4-10.4,22.2-22,27c-11.6,4.8-24.3,3.5-34.7-3.5L118,56.4c-8.4-5.7-19.8-4.7-27,2.6L52.7,97.3
				c-7.4,7.4-8.4,19.2-2.1,27.7l17.7,24.2c7.6,10.4,9.3,23.2,4.6,35.2c-4.7,11.9-14.6,20.2-27.3,22.6l-28.2,5.4
				C7.3,214.4,0,223.2,0,233.4v54.1c0,10.5,7.7,19.5,18.1,21.1l29.6,4.6c12.7,1.9,23,9.9,28.1,21.7c5.1,11.8,3.9,24.7-3.3,35.3
				L56.4,394c-5.7,8.4-4.7,19.8,2.6,27l38.3,38.3c7.4,7.5,19.2,8.3,27.7,2.1l24.2-17.7c10.4-7.6,23.2-9.3,35.2-4.6
				c11.9,4.7,20.2,14.6,22.6,27.3l5.4,28.2c1.9,10,10.7,17.3,20.9,17.3h54.1c10.5,0,19.5-7.7,21.1-18.1l3.2-20.8
				c2-13,10.1-23.4,22.3-28.4c12.1-5,25.2-3.5,35.8,4.3l17,12.5c8.4,6.2,20.2,5.3,27.7-2.1l38.3-38.3c7.2-7.2,8.3-18.6,2.6-27
				l-16.1-23.8c-7.2-10.6-8.4-23.5-3.3-35.3c5.2-11.8,15.4-19.7,28.1-21.7l29.6-4.6c10.4-1.6,18.1-10.6,18.1-21.1v-54.1
				C512,223.2,504.7,214.4,494.7,212.5z M256,362.7c-58.8,0-106.7-47.9-106.7-106.7S197.2,149.3,256,149.3S362.7,197.2,362.7,256
				S314.8,362.7,256,362.7z"/>
		</g>
	</g>
</g>
</svg>
