<?xml version="1.0" encoding="utf-8"?>
<!-- Generator: Adobe Illustrator 25.4.1, SVG Export Plug-In . SVG Version: 6.00 Build 0)  -->
<svg version="1.1" id="Capa_1" xmlns="http://www.w3.org/2000/svg" xmlns:xlink="http://www.w3.org/1999/xlink" x="0px" y="0px"
	 viewBox="0 0 511.8 511.8" style="enable-background:new 0 0 511.8 511.8;" xml:space="preserve">
<style type="text/css">
	.st0{fill:#E76F51;}
</style>
<g>
	<g>
		<path class="st0" d="M436.9,74.9c-99.8-99.8-262.2-99.8-362,0c-99.8,99.8-99.8,262.2,0,362c49.9,49.9,115.5,74.8,181,74.8
			s131.1-24.9,181-74.8C536.7,337.1,536.7,174.7,436.9,74.9z M361.5,331.3c8.3,8.3,8.3,21.8,0,30.2c-4.2,4.2-9.6,6.3-15.1,6.3
			c-5.5,0-10.9-2.1-15.1-6.3L255.9,286l-75.4,75.4c-4.2,4.2-9.6,6.3-15.1,6.3c-5.5,0-10.9-2.1-15.1-6.3c-8.3-8.3-8.3-21.8,0-30.2
			l75.4-75.4l-75.4-75.4c-8.3-8.3-8.3-21.8,0-30.2c8.3-8.3,21.8-8.3,30.2,0l75.4,75.4l75.4-75.4c8.3-8.3,21.8-8.3,30.2,0
			c8.3,8.3,8.3,21.8,0,30.2L286,255.9L361.5,331.3z"/>
	</g>
</g>
</svg>
